<svg width="200" height="150" viewBox="0 0 200 150" fill="none" xmlns="http://www.w3.org/2000/svg">
<rect width="200" height="150" fill="#C62828"/>
<path d="M64.25 84.3125L48.75 86.3125L46.875 79.25H39.75L38.1875 86.3125L22.25 84.75L34.6875 43.125L52.0625 42.25L64.25 84.3125ZM45.75 69.6875L43.375 58.8125L41.0625 69.6875H45.75ZM95.0625 43.0625L93.3125 56.25C92.7083 56.0833 92.1042 55.9688 91.5 55.9062C90.8958 55.8438 90.2917 55.8125 89.6875 55.8125C88.1458 55.8125 86.6771 56.0208 85.2812 56.4375C83.8854 56.8333 82.6458 57.4479 81.5625 58.2812C80.5 59.1146 79.6458 60.1562 79 61.4062C78.375 62.6562 78.0625 64.125 78.0625 65.8125C78.0625 66.8958 78.2292 67.8333 78.5625 68.625C78.9167 69.4167 79.4062 70.0729 80.0312 70.5938C80.6562 71.1146 81.3958 71.5 82.25 71.75C83.1042 72 84.0417 72.125 85.0625 72.125C85.8333 72.125 86.6354 72.0417 87.4688 71.875C88.3021 71.7083 89.125 71.4896 89.9375 71.2188C90.75 70.9479 91.5417 70.6354 92.3125 70.2812C93.0833 69.9271 93.7917 69.5625 94.4375 69.1875L93.1875 83.875C92.375 84.2917 91.4896 84.6667 90.5312 85C89.5938 85.3125 88.625 85.5938 87.625 85.8438C86.625 86.0729 85.625 86.25 84.625 86.375C83.625 86.5 82.6667 86.5625 81.75 86.5625C79.1042 86.5625 76.6354 86.0729 74.3438 85.0938C72.0521 84.1146 70.0625 82.7708 68.375 81.0625C66.6875 79.3542 65.3542 77.3438 64.375 75.0312C63.4167 72.6979 62.9375 70.1875 62.9375 67.5C62.9375 63.9375 63.4479 60.5833 64.4688 57.4375C65.4896 54.2708 66.9896 51.5 68.9688 49.125C70.9479 46.75 73.3958 44.875 76.3125 43.5C79.25 42.125 82.625 41.4375 86.4375 41.4375C87.875 41.4375 89.3438 41.5521 90.8438 41.7812C92.3646 42.0104 93.7708 42.4375 95.0625 43.0625ZM145.344 41.4375L142.469 87.3125L128.219 87.9375L128.344 63.75L121.906 83.25H116.406L111.469 65.8125L111.406 86.0625L96.9688 86.5L97.5938 43.3125L113.656 42.6875L120.031 63.375L128.531 41.4375H145.344ZM177.25 41.9375C177.125 43.8958 177.01 45.8333 176.906 47.75C176.802 49.6667 176.667 51.6042 176.5 53.5625L163.25 54.25L162.938 58.1875H172.25L171.562 67.875L162.188 68.1875L161.875 72.75H169.625H175.125C175 75.0417 174.865 77.3229 174.719 79.5938C174.594 81.8438 174.479 84.1042 174.375 86.375L147.438 87L148.438 41.9375H177.25ZM32.8164 93.2695L32.2695 97.3906C32.0807 97.3385 31.8919 97.3027 31.7031 97.2832C31.5143 97.2637 31.3255 97.2539 31.1367 97.2539C30.6549 97.2539 30.196 97.319 29.7598 97.4492C29.3236 97.5729 28.9362 97.765 28.5977 98.0254C28.2656 98.2858 27.9987 98.6113 27.7969 99.002C27.6016 99.3926 27.5039 99.8516 27.5039 100.379C27.5039 100.717 27.556 101.01 27.6602 101.258C27.7708 101.505 27.9238 101.71 28.1191 101.873C28.3145 102.036 28.5456 102.156 28.8125 102.234C29.0794 102.312 29.3724 102.352 29.6914 102.352C29.9323 102.352 30.1829 102.326 30.4434 102.273C30.7038 102.221 30.9609 102.153 31.2148 102.068C31.4688 101.984 31.7161 101.886 31.957 101.775C32.1979 101.665 32.4193 101.551 32.6211 101.434L32.2305 106.023C31.9766 106.154 31.6999 106.271 31.4004 106.375C31.1074 106.473 30.8047 106.561 30.4922 106.639C30.1797 106.71 29.8672 106.766 29.5547 106.805C29.2422 106.844 28.9427 106.863 28.6562 106.863C27.8294 106.863 27.0579 106.71 26.3418 106.404C25.6257 106.098 25.0039 105.678 24.4766 105.145C23.9492 104.611 23.5326 103.982 23.2266 103.26C22.9271 102.531 22.7773 101.746 22.7773 100.906C22.7773 99.793 22.9368 98.7448 23.2559 97.7617C23.5749 96.7721 24.0436 95.9062 24.6621 95.1641C25.2806 94.4219 26.0456 93.8359 26.957 93.4062C27.875 92.9766 28.9297 92.7617 30.1211 92.7617C30.5703 92.7617 31.0293 92.7975 31.498 92.8691C31.9733 92.9408 32.4128 93.0742 32.8164 93.2695ZM48.1848 100.105C48.1848 100.698 48.1164 101.271 47.9797 101.824C47.843 102.371 47.6444 102.885 47.384 103.367C47.1301 103.849 46.8176 104.292 46.4465 104.695C46.0819 105.092 45.6685 105.434 45.2062 105.721C44.7505 106.007 44.2525 106.232 43.7121 106.395C43.1717 106.551 42.5988 106.629 41.9934 106.629C41.4074 106.629 40.8475 106.554 40.3137 106.404C39.7863 106.255 39.2915 106.046 38.8293 105.779C38.3671 105.506 37.9471 105.18 37.5695 104.803C37.1984 104.419 36.8794 103.995 36.6125 103.533C36.3521 103.064 36.147 102.563 35.9973 102.029C35.854 101.495 35.7824 100.939 35.7824 100.359C35.7824 99.793 35.8508 99.2396 35.9875 98.6992C36.1242 98.1523 36.3195 97.638 36.5734 97.1562C36.8339 96.6745 37.1464 96.2318 37.5109 95.8281C37.8755 95.4245 38.2824 95.0762 38.7316 94.7832C39.1874 94.4902 39.6789 94.2624 40.2062 94.0996C40.7336 93.9368 41.2902 93.8555 41.8762 93.8555C42.8202 93.8555 43.6796 94.002 44.4543 94.2949C45.2355 94.5879 45.8996 95.0078 46.4465 95.5547C46.9999 96.0951 47.4263 96.7526 47.7258 97.5273C48.0318 98.2956 48.1848 99.1549 48.1848 100.105ZM43.8488 100.359C43.8488 100.079 43.8065 99.8092 43.7219 99.5488C43.6437 99.2819 43.5266 99.0475 43.3703 98.8457C43.2141 98.6374 43.0187 98.4714 42.7844 98.3477C42.5565 98.2174 42.2928 98.1523 41.9934 98.1523C41.6874 98.1523 41.4139 98.2077 41.173 98.3184C40.9322 98.429 40.7238 98.582 40.548 98.7773C40.3788 98.9661 40.2486 99.1908 40.1574 99.4512C40.0663 99.7051 40.0207 99.9753 40.0207 100.262C40.0207 100.535 40.0598 100.809 40.1379 101.082C40.216 101.355 40.3332 101.603 40.4895 101.824C40.6457 102.046 40.8378 102.225 41.0656 102.361C41.3 102.498 41.5702 102.566 41.8762 102.566C42.1822 102.566 42.4556 102.508 42.6965 102.391C42.9439 102.267 43.1522 102.104 43.3215 101.902C43.4908 101.694 43.621 101.456 43.7121 101.189C43.8033 100.923 43.8488 100.646 43.8488 100.359ZM63.1137 97.5859C63.1137 98.0938 63.0681 98.556 62.977 98.9727C62.8923 99.3828 62.7556 99.7604 62.5668 100.105C62.378 100.451 62.1339 100.77 61.8344 101.062C61.5349 101.355 61.1736 101.635 60.7504 101.902L63.0746 106.043L58.6801 106.902L57.1762 102.742L55.9652 102.781L55.7895 106.844H51.5902C51.6228 105.359 51.6521 103.882 51.6781 102.41C51.7107 100.939 51.7465 99.4609 51.7855 97.9766C51.7986 97.2279 51.8116 96.4857 51.8246 95.75C51.8376 95.0143 51.8637 94.2721 51.9027 93.5234C52.3585 93.3542 52.8077 93.2142 53.2504 93.1035C53.6931 92.9928 54.1358 92.9082 54.5785 92.8496C55.0277 92.7845 55.4802 92.7422 55.9359 92.7227C56.3982 92.6966 56.8702 92.6836 57.352 92.6836C58.0941 92.6836 58.8103 92.7878 59.5004 92.9961C60.197 93.1979 60.8122 93.5039 61.3461 93.9141C61.8799 94.3242 62.3064 94.8353 62.6254 95.4473C62.9509 96.0592 63.1137 96.7721 63.1137 97.5859ZM58.7387 97.8984C58.7387 97.625 58.6996 97.3743 58.6215 97.1465C58.5499 96.9186 58.4392 96.7233 58.2895 96.5605C58.1462 96.3913 57.9639 96.2611 57.7426 96.1699C57.5277 96.0723 57.2738 96.0234 56.9809 96.0234C56.8506 96.0234 56.7237 96.0332 56.6 96.0527C56.4763 96.0658 56.3559 96.0885 56.2387 96.1211L56.0824 99.7539H56.3168C56.5967 99.7539 56.8799 99.7181 57.1664 99.6465C57.4594 99.5749 57.7198 99.4642 57.9477 99.3145C58.182 99.1647 58.3708 98.9727 58.5141 98.7383C58.6638 98.5039 58.7387 98.224 58.7387 97.8984ZM77.9742 97.6055C77.9742 98.237 77.8798 98.7969 77.691 99.2852C77.5022 99.7734 77.2418 100.2 76.9098 100.564C76.5842 100.929 76.2001 101.238 75.7574 101.492C75.3147 101.746 74.8395 101.954 74.3316 102.117C73.8303 102.273 73.3095 102.391 72.7691 102.469C72.2288 102.54 71.6982 102.579 71.1773 102.586V107.137H66.6266C66.6266 105.646 66.6298 104.161 66.6363 102.684C66.6428 101.206 66.6526 99.7148 66.6656 98.2109C66.6786 97.4167 66.6819 96.6224 66.6754 95.8281C66.6689 95.0339 66.6852 94.2331 66.7242 93.4258C67.5576 93.1784 68.3909 92.9928 69.2242 92.8691C70.0576 92.7454 70.9169 92.6836 71.8023 92.6836C72.3036 92.6836 72.8049 92.7259 73.3063 92.8105C73.8076 92.8887 74.2861 93.0156 74.7418 93.1914C75.204 93.3672 75.6305 93.5885 76.0211 93.8555C76.4182 94.1159 76.76 94.4284 77.0465 94.793C77.3329 95.1576 77.5576 95.5742 77.7203 96.043C77.8896 96.5052 77.9742 97.026 77.9742 97.6055ZM73.6383 97.9375C73.6383 97.5143 73.5081 97.1855 73.2477 96.9512C72.9938 96.7103 72.6617 96.5898 72.2516 96.5898C72.1148 96.5898 71.9716 96.6029 71.8219 96.6289C71.6786 96.6484 71.5419 96.6745 71.4117 96.707L71.2945 99.5586C71.3857 99.5716 71.4736 99.5781 71.5582 99.5781C71.6428 99.5781 71.7307 99.5781 71.8219 99.5781C72.0563 99.5781 72.2809 99.5391 72.4957 99.4609C72.7171 99.3828 72.9124 99.2721 73.0816 99.1289C73.2509 98.9792 73.3844 98.8066 73.482 98.6113C73.5862 98.4095 73.6383 98.1849 73.6383 97.9375ZM93.3816 100.105C93.3816 100.698 93.3133 101.271 93.1766 101.824C93.0398 102.371 92.8413 102.885 92.5809 103.367C92.327 103.849 92.0145 104.292 91.6434 104.695C91.2788 105.092 90.8654 105.434 90.4031 105.721C89.9474 106.007 89.4493 106.232 88.909 106.395C88.3686 106.551 87.7957 106.629 87.1902 106.629C86.6043 106.629 86.0444 106.554 85.5105 106.404C84.9832 106.255 84.4884 106.046 84.0262 105.779C83.5639 105.506 83.144 105.18 82.7664 104.803C82.3953 104.419 82.0763 103.995 81.8094 103.533C81.549 103.064 81.3439 102.563 81.1941 102.029C81.0509 101.495 80.9793 100.939 80.9793 100.359C80.9793 99.793 81.0477 99.2396 81.1844 98.6992C81.3211 98.1523 81.5164 97.638 81.7703 97.1562C82.0307 96.6745 82.3432 96.2318 82.7078 95.8281C83.0724 95.4245 83.4793 95.0762 83.9285 94.7832C84.3842 94.4902 84.8758 94.2624 85.4031 94.0996C85.9305 93.9368 86.4871 93.8555 87.073 93.8555C88.0171 93.8555 88.8764 94.002 89.6512 94.2949C90.4324 94.5879 91.0965 95.0078 91.6434 95.5547C92.1967 96.0951 92.6232 96.7526 92.9227 97.5273C93.2286 98.2956 93.3816 99.1549 93.3816 100.105ZM89.0457 100.359C89.0457 100.079 89.0034 99.8092 88.9187 99.5488C88.8406 99.2819 88.7234 99.0475 88.5672 98.8457C88.4109 98.6374 88.2156 98.4714 87.9812 98.3477C87.7534 98.2174 87.4897 98.1523 87.1902 98.1523C86.8842 98.1523 86.6108 98.2077 86.3699 98.3184C86.129 98.429 85.9207 98.582 85.7449 98.7773C85.5756 98.9661 85.4454 99.1908 85.3543 99.4512C85.2631 99.7051 85.2176 99.9753 85.2176 100.262C85.2176 100.535 85.2566 100.809 85.3348 101.082C85.4129 101.355 85.5301 101.603 85.6863 101.824C85.8426 102.046 86.0346 102.225 86.2625 102.361C86.4969 102.498 86.7671 102.566 87.073 102.566C87.379 102.566 87.6525 102.508 87.8934 102.391C88.1408 102.267 88.3491 102.104 88.5184 101.902C88.6876 101.694 88.8178 101.456 88.909 101.189C89.0001 100.923 89.0457 100.646 89.0457 100.359ZM108.311 97.5859C108.311 98.0938 108.265 98.556 108.174 98.9727C108.089 99.3828 107.952 99.7604 107.764 100.105C107.575 100.451 107.331 100.77 107.031 101.062C106.732 101.355 106.37 101.635 105.947 101.902L108.271 106.043L103.877 106.902L102.373 102.742L101.162 102.781L100.986 106.844H96.7871C96.8197 105.359 96.849 103.882 96.875 102.41C96.9076 100.939 96.9434 99.4609 96.9824 97.9766C96.9954 97.2279 97.0085 96.4857 97.0215 95.75C97.0345 95.0143 97.0605 94.2721 97.0996 93.5234C97.5553 93.3542 98.0046 93.2142 98.4473 93.1035C98.89 92.9928 99.3327 92.9082 99.7754 92.8496C100.225 92.7845 100.677 92.7422 101.133 92.7227C101.595 92.6966 102.067 92.6836 102.549 92.6836C103.291 92.6836 104.007 92.7878 104.697 92.9961C105.394 93.1979 106.009 93.5039 106.543 93.9141C107.077 94.3242 107.503 94.8353 107.822 95.4473C108.148 96.0592 108.311 96.7721 108.311 97.5859ZM103.936 97.8984C103.936 97.625 103.896 97.3743 103.818 97.1465C103.747 96.9186 103.636 96.7233 103.486 96.5605C103.343 96.3913 103.161 96.2611 102.939 96.1699C102.725 96.0723 102.471 96.0234 102.178 96.0234C102.048 96.0234 101.921 96.0332 101.797 96.0527C101.673 96.0658 101.553 96.0885 101.436 96.1211L101.279 99.7539H101.514C101.794 99.7539 102.077 99.7181 102.363 99.6465C102.656 99.5749 102.917 99.4642 103.145 99.3145C103.379 99.1647 103.568 98.9727 103.711 98.7383C103.861 98.5039 103.936 98.224 103.936 97.8984ZM124.109 106.16L119.265 106.785L118.679 104.578H116.452L115.964 106.785L110.984 106.297L114.87 93.2891L120.3 93.0156L124.109 106.16ZM118.327 101.59L117.585 98.1914L116.863 101.59H118.327ZM136.284 93.0352L136.186 97.1758L133.276 97.293L132.534 106.551L128.412 106.766L128.432 97.5078L125.522 97.6641L125.639 93.0547L136.284 93.0352ZM144.894 93.25L143.82 106.551L139.699 106.766V93.5234L144.894 93.25ZM160.292 100.105C160.292 100.698 160.223 101.271 160.087 101.824C159.95 102.371 159.751 102.885 159.491 103.367C159.237 103.849 158.925 104.292 158.554 104.695C158.189 105.092 157.776 105.434 157.313 105.721C156.858 106.007 156.36 106.232 155.819 106.395C155.279 106.551 154.706 106.629 154.1 106.629C153.514 106.629 152.955 106.554 152.421 106.404C151.893 106.255 151.399 106.046 150.936 105.779C150.474 105.506 150.054 105.18 149.677 104.803C149.305 104.419 148.986 103.995 148.72 103.533C148.459 103.064 148.254 102.563 148.104 102.029C147.961 101.495 147.889 100.939 147.889 100.359C147.889 99.793 147.958 99.2396 148.095 98.6992C148.231 98.1523 148.427 97.638 148.68 97.1562C148.941 96.6745 149.253 96.2318 149.618 95.8281C149.983 95.4245 150.389 95.0762 150.839 94.7832C151.294 94.4902 151.786 94.2624 152.313 94.0996C152.841 93.9368 153.397 93.8555 153.983 93.8555C154.927 93.8555 155.787 94.002 156.561 94.2949C157.343 94.5879 158.007 95.0078 158.554 95.5547C159.107 96.0951 159.533 96.7526 159.833 97.5273C160.139 98.2956 160.292 99.1549 160.292 100.105ZM155.956 100.359C155.956 100.079 155.914 99.8092 155.829 99.5488C155.751 99.2819 155.634 99.0475 155.477 98.8457C155.321 98.6374 155.126 98.4714 154.891 98.3477C154.664 98.2174 154.4 98.1523 154.1 98.1523C153.794 98.1523 153.521 98.2077 153.28 98.3184C153.039 98.429 152.831 98.582 152.655 98.7773C152.486 98.9661 152.356 99.1908 152.264 99.4512C152.173 99.7051 152.128 99.9753 152.128 100.262C152.128 100.535 152.167 100.809 152.245 101.082C152.323 101.355 152.44 101.603 152.596 101.824C152.753 102.046 152.945 102.225 153.173 102.361C153.407 102.498 153.677 102.566 153.983 102.566C154.289 102.566 154.563 102.508 154.804 102.391C155.051 102.267 155.259 102.104 155.429 101.902C155.598 101.694 155.728 101.456 155.819 101.189C155.91 100.923 155.956 100.646 155.956 100.359ZM177.057 92.9961L176.354 106.238L171.236 106.707L168.502 99.6172L168.072 106.844H163.678L164.029 92.9961L168.912 92.7617L172.291 99.793L172.447 93.1523L177.057 92.9961Z" fill="white"/>
</svg>
