<svg width="200" height="150" viewBox="0 0 200 150" fill="none" xmlns="http://www.w3.org/2000/svg">
<rect width="200" height="150" fill="white"/>
<path d="M24.6521 83V59.928H29.2601V78.36H47.6921V83H24.6521ZM53.9096 83C53.099 83 52.3523 82.7973 51.6696 82.392C50.987 81.9653 50.4323 81.4107 50.0056 80.728C49.6003 80.0453 49.3976 79.2987 49.3976 78.488V68.952C49.3976 68.1413 49.6003 67.3947 50.0056 66.712C50.4323 66.0293 50.987 65.4853 51.6696 65.08C52.3523 64.6533 53.099 64.44 53.9096 64.44H63.7016C64.5336 64.44 65.291 64.6533 65.9736 65.08C66.6563 65.4853 67.2003 66.0293 67.6056 66.712C68.011 67.3947 68.2136 68.1413 68.2136 68.952V76.024H53.9416V78.264C53.9416 78.3067 53.963 78.3493 54.0056 78.392C54.0483 78.4347 54.091 78.456 54.1336 78.456H68.2136V83H53.9096ZM53.9416 71.96H63.6696V69.176C63.6696 69.1333 63.6483 69.0907 63.6056 69.048C63.563 69.0053 63.5203 68.984 63.4776 68.984H54.1336C54.091 68.984 54.0483 69.0053 54.0056 69.048C53.963 69.0907 53.9416 69.1333 53.9416 69.176V71.96ZM70.7689 83V81.624L77.3609 73.56L70.7689 65.816V64.44H75.5689L80.3369 70.072L85.0729 64.44H89.8729V65.816L83.2809 73.56L89.8729 81.624V83H85.1049L80.3369 77.144L75.5689 83H70.7689Z" fill="#757575"/>
<path d="M97.8531 83C96.9998 83 96.2211 82.7973 95.5171 82.392C94.8345 81.9653 94.2798 81.4107 93.8531 80.728C93.4478 80.024 93.2451 79.2453 93.2451 78.392V64.568C93.2451 63.7147 93.4478 62.9467 93.8531 62.264C94.2798 61.56 94.8345 61.0053 95.5171 60.6C96.2211 60.1733 96.9998 59.96 97.8531 59.96H116.221V64.6H98.9411C98.5998 64.6 98.3331 64.696 98.1411 64.888C97.9491 65.0587 97.8531 65.3253 97.8531 65.688V77.272C97.8531 77.6133 97.9491 77.88 98.1411 78.072C98.3331 78.264 98.5998 78.36 98.9411 78.36H116.221V83H97.8531ZM123.91 83C123.099 83 122.352 82.7973 121.67 82.392C120.987 81.9653 120.432 81.4107 120.006 80.728C119.6 80.0453 119.398 79.2987 119.398 78.488V68.952C119.398 68.1413 119.6 67.3947 120.006 66.712C120.432 66.0293 120.987 65.4853 121.67 65.08C122.352 64.6533 123.099 64.44 123.91 64.44H133.702C134.534 64.44 135.291 64.6533 135.974 65.08C136.656 65.4853 137.2 66.0293 137.606 66.712C138.011 67.3947 138.214 68.1413 138.214 68.952V78.488C138.214 79.2987 138.011 80.0453 137.606 80.728C137.2 81.4107 136.656 81.9653 135.974 82.392C135.291 82.7973 134.534 83 133.702 83H123.91ZM124.134 78.456H133.478C133.52 78.456 133.563 78.4347 133.606 78.392C133.648 78.3493 133.67 78.3067 133.67 78.264V69.176C133.67 69.1333 133.648 69.0907 133.606 69.048C133.563 69.0053 133.52 68.984 133.478 68.984H124.134C124.091 68.984 124.048 69.0053 124.006 69.048C123.963 69.0907 123.942 69.1333 123.942 69.176V78.264C123.942 78.3067 123.963 78.3493 124.006 78.392C124.048 78.4347 124.091 78.456 124.134 78.456ZM140.805 83V68.952C140.805 68.1413 141.007 67.3947 141.413 66.712C141.839 66.0293 142.394 65.4853 143.077 65.08C143.781 64.6533 144.538 64.44 145.349 64.44H155.621V68.984H145.541C145.498 68.984 145.455 69.0053 145.413 69.048C145.37 69.0907 145.349 69.1333 145.349 69.176V83H140.805ZM157.65 90.36V64.44H171.954C172.786 64.44 173.543 64.6533 174.226 65.08C174.909 65.4853 175.453 66.0293 175.858 66.712C176.263 67.3947 176.466 68.1413 176.466 68.952V78.488C176.466 79.2987 176.263 80.0453 175.858 80.728C175.453 81.4107 174.909 81.9653 174.226 82.392C173.543 82.7973 172.786 83 171.954 83H162.194V90.36H157.65ZM162.386 78.456H171.73C171.794 78.456 171.837 78.4347 171.858 78.392C171.901 78.3493 171.922 78.3067 171.922 78.264V69.176C171.922 69.1333 171.901 69.0907 171.858 69.048C171.837 69.0053 171.794 68.984 171.73 68.984H162.386C162.343 68.984 162.301 69.0053 162.258 69.048C162.215 69.0907 162.194 69.1333 162.194 69.176V78.264C162.194 78.3067 162.215 78.3493 162.258 78.392C162.301 78.4347 162.343 78.456 162.386 78.456Z" fill="#EF6C00"/>
</svg>
