<svg width="200" height="150" viewBox="0 0 200 150" fill="none" xmlns="http://www.w3.org/2000/svg">
<rect width="200" height="150" fill="black"/>
<path d="M27.2064 79L20.7664 51.48H29.9664L32.3664 63.24C32.4197 63.4533 32.4864 63.7867 32.5664 64.24C32.6464 64.6667 32.7397 65.1467 32.8464 65.68C32.9531 66.1867 33.0464 66.6533 33.1264 67.08H33.2864C33.3397 66.84 33.3931 66.56 33.4464 66.24C33.5264 65.8933 33.5931 65.5467 33.6464 65.2C33.7264 64.8533 33.7931 64.5067 33.8464 64.16C33.9264 63.8133 33.9931 63.5067 34.0464 63.24L36.4064 51.48H45.1264L47.6464 63.24C47.6997 63.5067 47.7664 63.8667 47.8464 64.32C47.9531 64.7733 48.0597 65.2533 48.1664 65.76C48.2731 66.24 48.3664 66.68 48.4464 67.08H48.6064C48.6597 66.8133 48.7131 66.52 48.7664 66.2C48.8464 65.8533 48.9131 65.5067 48.9664 65.16C49.0197 64.8133 49.0731 64.48 49.1264 64.16C49.2064 63.8133 49.2731 63.5067 49.3264 63.24L51.5664 51.48H60.3664L53.9264 79H44.2064L41.4864 66.12C41.4331 65.7733 41.3531 65.3733 41.2464 64.92C41.1397 64.44 41.0331 63.96 40.9264 63.48C40.8197 63 40.7264 62.5867 40.6464 62.24H40.4864C40.4064 62.56 40.3131 62.96 40.2064 63.44C40.1264 63.8933 40.0331 64.36 39.9264 64.84C39.8197 65.2933 39.7264 65.72 39.6464 66.12L36.9264 79H27.2064ZM58.9742 79L69.0142 51.48H79.2942L89.3342 79H79.9742L78.8142 75.12H69.1742L68.0142 79H58.9742ZM71.0142 68.96H77.0142L75.6942 64.56C75.5876 64.24 75.4676 63.8533 75.3342 63.4C75.2009 62.9467 75.0676 62.4667 74.9342 61.96C74.8009 61.4533 74.6676 60.96 74.5342 60.48C74.4009 59.9733 74.2809 59.5333 74.1742 59.16H73.8542C73.7476 59.64 73.6009 60.1867 73.4142 60.8C73.2542 61.4133 73.0809 62.0533 72.8942 62.72C72.7076 63.36 72.5209 63.9733 72.3342 64.56L71.0142 68.96ZM97.3133 79V68.32L86.3933 51.48H96.5533L101.833 60.64H101.993L107.273 51.48H116.913L106.153 68.32V79H97.3133ZM120.206 79V51.48H127.726L136.286 61.36C136.526 61.6267 136.846 62.0133 137.246 62.52C137.646 63.0267 138.046 63.5467 138.446 64.08C138.873 64.5867 139.193 65 139.406 65.32L139.606 65.24C139.579 64.4933 139.566 63.76 139.566 63.04C139.566 62.2933 139.566 61.7333 139.566 61.36V51.48H147.606V79H140.126L130.486 68C130.033 67.4667 129.646 66.9867 129.326 66.56C129.006 66.1067 128.699 65.68 128.406 65.28L128.206 65.36C128.233 65.8667 128.246 66.3733 128.246 66.88C128.246 67.3867 128.246 67.76 128.246 68V79H120.206ZM153.646 79V51.48H177.446V58.08H162.486V61.88H175.286V68.2H162.486V72.4H177.726V79H153.646ZM24.7692 95V84.71H32.7492V86.15H26.4492V89.015H32.0892V90.455H26.4492V93.56H32.8392V95H24.7692ZM39.5266 95V84.71H41.1466L45.8416 91.16C45.9016 91.22 45.9666 91.305 46.0366 91.415C46.1166 91.525 46.1916 91.635 46.2616 91.745C46.3316 91.855 46.3816 91.945 46.4116 92.015H46.4866C46.4866 91.865 46.4866 91.72 46.4866 91.58C46.4866 91.44 46.4866 91.3 46.4866 91.16V84.71H48.1066V95H46.5466L41.7916 88.475C41.7116 88.355 41.6116 88.205 41.4916 88.025C41.3716 87.835 41.2816 87.69 41.2216 87.59H41.1466C41.1466 87.73 41.1466 87.875 41.1466 88.025C41.1466 88.165 41.1466 88.315 41.1466 88.475V95H39.5266ZM57.7122 95V86.15H54.3072V84.71H62.8272V86.15H59.3922V95H57.7122ZM69.0268 95V84.71H77.0068V86.15H70.7068V89.015H76.3468V90.455H70.7068V93.56H77.0968V95H69.0268ZM83.7842 95V84.71H89.1992C89.9292 84.71 90.5342 84.84 91.0142 85.1C91.4942 85.36 91.8542 85.725 92.0942 86.195C92.3342 86.655 92.4542 87.195 92.4542 87.815C92.4542 88.505 92.2992 89.105 91.9892 89.615C91.6792 90.125 91.2392 90.5 90.6692 90.74L92.8142 95H90.9842L89.0342 91.025H85.4642V95H83.7842ZM85.4642 89.615H89.0642C89.6042 89.615 90.0192 89.455 90.3092 89.135C90.6092 88.815 90.7592 88.37 90.7592 87.8C90.7592 87.45 90.6942 87.155 90.5642 86.915C90.4342 86.665 90.2442 86.475 89.9942 86.345C89.7442 86.215 89.4342 86.15 89.0642 86.15H85.4642V89.615ZM99.2594 95V84.71H104.389C105.119 84.71 105.724 84.845 106.204 85.115C106.684 85.385 107.044 85.76 107.284 86.24C107.534 86.71 107.659 87.27 107.659 87.92C107.659 88.57 107.529 89.145 107.269 89.645C107.009 90.135 106.629 90.515 106.129 90.785C105.639 91.055 105.039 91.19 104.329 91.19H100.939V95H99.2594ZM100.939 89.75H104.254C104.784 89.75 105.199 89.59 105.499 89.27C105.809 88.95 105.964 88.505 105.964 87.935C105.964 87.555 105.899 87.235 105.769 86.975C105.639 86.705 105.449 86.5 105.199 86.36C104.949 86.22 104.634 86.15 104.254 86.15H100.939V89.75ZM113.914 95V84.71H119.329C120.059 84.71 120.664 84.84 121.144 85.1C121.624 85.36 121.984 85.725 122.224 86.195C122.464 86.655 122.584 87.195 122.584 87.815C122.584 88.505 122.429 89.105 122.119 89.615C121.809 90.125 121.369 90.5 120.799 90.74L122.944 95H121.114L119.164 91.025H115.594V95H113.914ZM115.594 89.615H119.194C119.734 89.615 120.149 89.455 120.439 89.135C120.739 88.815 120.889 88.37 120.889 87.8C120.889 87.45 120.824 87.155 120.694 86.915C120.564 86.665 120.374 86.475 120.124 86.345C119.874 86.215 119.564 86.15 119.194 86.15H115.594V89.615ZM129.39 95V84.71H131.07V95H129.39ZM141.966 95.18C141.406 95.18 140.866 95.12 140.346 95C139.826 94.89 139.366 94.71 138.966 94.46C138.566 94.2 138.251 93.875 138.021 93.485C137.791 93.085 137.676 92.61 137.676 92.06C137.676 92 137.676 91.945 137.676 91.895C137.686 91.835 137.691 91.785 137.691 91.745H139.371C139.371 91.775 139.366 91.82 139.356 91.88C139.356 91.94 139.356 91.99 139.356 92.03C139.356 92.4 139.466 92.715 139.686 92.975C139.906 93.235 140.211 93.43 140.601 93.56C141.001 93.69 141.456 93.755 141.966 93.755C142.246 93.755 142.516 93.74 142.776 93.71C143.036 93.67 143.271 93.615 143.481 93.545C143.701 93.465 143.891 93.37 144.051 93.26C144.211 93.14 144.336 93 144.426 92.84C144.516 92.68 144.561 92.495 144.561 92.285C144.561 91.965 144.466 91.7 144.276 91.49C144.096 91.28 143.846 91.105 143.526 90.965C143.216 90.825 142.861 90.7 142.461 90.59C142.071 90.48 141.666 90.37 141.246 90.26C140.826 90.15 140.416 90.02 140.016 89.87C139.626 89.72 139.271 89.54 138.951 89.33C138.641 89.11 138.391 88.84 138.201 88.52C138.021 88.19 137.931 87.79 137.931 87.32C137.931 86.87 138.026 86.47 138.216 86.12C138.406 85.77 138.681 85.48 139.041 85.25C139.401 85.01 139.831 84.83 140.331 84.71C140.831 84.59 141.396 84.53 142.026 84.53C142.566 84.53 143.076 84.59 143.556 84.71C144.036 84.82 144.456 84.995 144.816 85.235C145.176 85.475 145.456 85.78 145.656 86.15C145.866 86.52 145.971 86.96 145.971 87.47V87.65H144.306V87.455C144.306 87.135 144.211 86.865 144.021 86.645C143.831 86.425 143.566 86.255 143.226 86.135C142.886 86.015 142.491 85.955 142.041 85.955C141.511 85.955 141.066 86.01 140.706 86.12C140.346 86.22 140.071 86.365 139.881 86.555C139.701 86.735 139.611 86.955 139.611 87.215C139.611 87.505 139.706 87.745 139.896 87.935C140.086 88.115 140.336 88.27 140.646 88.4C140.966 88.53 141.321 88.65 141.711 88.76C142.111 88.86 142.516 88.97 142.926 89.09C143.346 89.2 143.751 89.33 144.141 89.48C144.541 89.63 144.896 89.815 145.206 90.035C145.526 90.255 145.781 90.53 145.971 90.86C146.161 91.18 146.256 91.575 146.256 92.045C146.256 92.785 146.071 93.39 145.701 93.86C145.331 94.32 144.821 94.655 144.171 94.865C143.531 95.075 142.796 95.18 141.966 95.18ZM152.855 95V84.71H160.835V86.15H154.535V89.015H160.175V90.455H154.535V93.56H160.925V95H152.855ZM171.422 95.18C170.862 95.18 170.322 95.12 169.802 95C169.282 94.89 168.822 94.71 168.422 94.46C168.022 94.2 167.707 93.875 167.477 93.485C167.247 93.085 167.132 92.61 167.132 92.06C167.132 92 167.132 91.945 167.132 91.895C167.142 91.835 167.147 91.785 167.147 91.745H168.827C168.827 91.775 168.822 91.82 168.812 91.88C168.812 91.94 168.812 91.99 168.812 92.03C168.812 92.4 168.922 92.715 169.142 92.975C169.362 93.235 169.667 93.43 170.057 93.56C170.457 93.69 170.912 93.755 171.422 93.755C171.702 93.755 171.972 93.74 172.232 93.71C172.492 93.67 172.727 93.615 172.937 93.545C173.157 93.465 173.347 93.37 173.507 93.26C173.667 93.14 173.792 93 173.882 92.84C173.972 92.68 174.017 92.495 174.017 92.285C174.017 91.965 173.922 91.7 173.732 91.49C173.552 91.28 173.302 91.105 172.982 90.965C172.672 90.825 172.317 90.7 171.917 90.59C171.527 90.48 171.122 90.37 170.702 90.26C170.282 90.15 169.872 90.02 169.472 89.87C169.082 89.72 168.727 89.54 168.407 89.33C168.097 89.11 167.847 88.84 167.657 88.52C167.477 88.19 167.387 87.79 167.387 87.32C167.387 86.87 167.482 86.47 167.672 86.12C167.862 85.77 168.137 85.48 168.497 85.25C168.857 85.01 169.287 84.83 169.787 84.71C170.287 84.59 170.852 84.53 171.482 84.53C172.022 84.53 172.532 84.59 173.012 84.71C173.492 84.82 173.912 84.995 174.272 85.235C174.632 85.475 174.912 85.78 175.112 86.15C175.322 86.52 175.427 86.96 175.427 87.47V87.65H173.762V87.455C173.762 87.135 173.667 86.865 173.477 86.645C173.287 86.425 173.022 86.255 172.682 86.135C172.342 86.015 171.947 85.955 171.497 85.955C170.967 85.955 170.522 86.01 170.162 86.12C169.802 86.22 169.527 86.365 169.337 86.555C169.157 86.735 169.067 86.955 169.067 87.215C169.067 87.505 169.162 87.745 169.352 87.935C169.542 88.115 169.792 88.27 170.102 88.4C170.422 88.53 170.777 88.65 171.167 88.76C171.567 88.86 171.972 88.97 172.382 89.09C172.802 89.2 173.207 89.33 173.597 89.48C173.997 89.63 174.352 89.815 174.662 90.035C174.982 90.255 175.237 90.53 175.427 90.86C175.617 91.18 175.712 91.575 175.712 92.045C175.712 92.785 175.527 93.39 175.157 93.86C174.787 94.32 174.277 94.655 173.627 94.865C172.987 95.075 172.252 95.18 171.422 95.18Z" fill="#FFECB3"/>
</svg>
