<svg width="200" height="150" viewBox="0 0 200 150" fill="none" xmlns="http://www.w3.org/2000/svg">
<rect width="200" height="150" fill="#6A1B9A"/>
<path d="M38.9325 98.264C36.9698 98.264 35.4552 97.752 34.3885 96.728C33.3218 95.704 32.7885 94.68 32.7885 93.656C32.7885 92.8027 33.0658 92.12 33.6205 91.608C34.1752 91.096 34.7725 90.84 35.4125 90.84C35.7538 90.84 36.0738 90.904 36.3725 91.032C37.7805 91.7573 39.1885 92.2907 40.5965 92.632C42.0045 92.9733 43.4125 93.144 44.8205 93.144C46.2285 93.144 47.6792 92.9733 49.1725 92.632C51.3058 90.7547 53.2898 88.6 55.1245 86.168C57.0018 83.6933 58.6445 81.2187 60.0525 78.744C61.4605 76.2267 62.5272 73.9867 63.2525 72.024C63.3805 71.6827 63.5085 71.3413 63.6365 71C63.7645 70.6587 63.8712 70.3173 63.9565 69.976V69.72C63.9565 69.592 63.9565 69.464 63.9565 69.336C63.9992 69.1653 64.0205 68.9947 64.0205 68.824C64.0205 68.2693 63.9138 67.6933 63.7005 67.096C63.5298 66.4987 63.1885 66.008 62.6765 65.624C62.5058 66.0933 62.1858 66.456 61.7165 66.712C61.2472 66.968 60.7565 67.096 60.2445 67.096C59.9032 67.096 59.5618 67.032 59.2205 66.904C58.6232 66.6907 58.1538 66.4347 57.8125 66.136C57.4712 65.8373 57.1725 65.5387 56.9165 65.24C56.7032 65.0267 56.4045 64.8347 56.0205 64.664C55.6365 64.4507 55.2738 64.344 54.9325 64.344C54.4632 64.344 54.1005 64.536 53.8445 64.92C53.7592 64.792 53.7165 64.6 53.7165 64.344C53.7165 63.7893 53.9512 63.32 54.4205 62.936C54.9325 62.5093 55.3378 62.2533 55.6365 62.168C55.9778 61.9973 56.3618 61.8907 56.7885 61.848C57.2152 61.7627 57.6418 61.72 58.0685 61.72C58.4098 61.72 58.7512 61.7413 59.0925 61.784C59.4338 61.8267 59.7325 61.8907 59.9885 61.976C60.8418 62.232 61.5245 62.6587 62.0365 63.256C62.5485 63.8533 62.7832 64.4507 62.7405 65.048C63.1672 65.304 63.5298 65.6027 63.8285 65.944C64.1272 66.2427 64.3618 66.648 64.5325 67.16C64.5325 67.2027 64.5752 67.352 64.6605 67.608C64.9165 66.584 65.0872 65.6027 65.1725 64.664C65.3005 63.7253 65.3645 62.8293 65.3645 61.976C65.3645 59.2453 64.8312 56.9627 63.7645 55.128C62.7405 53.2933 61.3538 51.8853 59.6045 50.904C57.8552 49.9227 55.9138 49.368 53.7805 49.24C53.2258 49.368 52.6925 49.6453 52.1805 50.072C51.6258 50.584 51.3058 51.096 51.2205 51.608C51.6045 51.736 51.8818 51.992 52.0525 52.376C52.2658 52.7173 52.3725 53.1013 52.3725 53.528C52.3725 53.784 52.3512 53.976 52.3085 54.104C52.1805 54.5307 52.0098 54.8933 51.7965 55.192C51.6258 55.448 51.4338 55.6827 51.2205 55.896C50.8365 56.28 50.6445 56.7707 50.6445 57.368C50.6445 57.7947 50.7938 58.0933 51.0925 58.264C51.0072 58.3493 50.8792 58.392 50.7085 58.392C50.0685 58.392 49.5352 57.9653 49.1085 57.112C48.7245 56.216 48.5325 55.3627 48.5325 54.552C48.5325 53.6133 48.7885 52.888 49.3005 52.376C49.8125 51.8213 50.3245 51.544 50.8365 51.544C50.9218 50.8613 51.1992 50.2853 51.6685 49.816C51.7965 49.688 51.9245 49.5813 52.0525 49.496C52.2232 49.368 52.3938 49.2613 52.5645 49.176C50.3032 49.176 47.9565 49.6453 45.5245 50.584C43.0925 51.48 40.8098 52.824 38.6765 54.616C36.5432 56.3653 34.7085 58.5413 33.1725 61.144C33.0018 61.4853 32.8098 61.848 32.5965 62.232C32.4258 62.5733 32.2552 62.9147 32.0845 63.256C32.1698 63.256 32.1698 63.32 32.0845 63.448C32.0418 63.704 31.9778 63.9813 31.8925 64.28C31.8498 64.536 31.8285 64.8133 31.8285 65.112C31.8285 65.88 31.9565 66.6267 32.2125 67.352C32.5112 68.0773 33.0018 68.6107 33.6845 68.952C34.1965 68.3547 34.8578 68.056 35.6685 68.056C35.7965 68.056 35.9245 68.0773 36.0525 68.12C36.1805 68.12 36.3085 68.1413 36.4365 68.184C37.0338 68.3547 37.5032 68.568 37.8445 68.824C38.1858 69.08 38.5058 69.3147 38.8045 69.528C39.2738 69.9973 39.8712 70.232 40.5965 70.232C41.1938 70.232 41.5992 70.0187 41.8125 69.592C41.9405 69.72 42.0045 69.912 42.0045 70.168C42.0045 70.7227 41.7058 71.2347 41.1085 71.704C40.5538 72.1307 39.8712 72.472 39.0605 72.728C38.2498 72.9413 37.5032 73.048 36.8205 73.048C35.7112 73.048 34.8152 72.7067 34.1325 72.024C33.4498 71.3413 33.1298 70.6587 33.1725 69.976L33.3645 69.4C32.8098 69.1013 32.3192 68.6107 31.8925 67.928C31.5085 67.2453 31.2525 66.5627 31.1245 65.88C30.8258 66.776 30.6125 67.672 30.4845 68.568C30.3565 69.4213 30.2925 70.2533 30.2925 71.064C30.2925 73.112 30.6765 74.968 31.4445 76.632C32.2552 78.2533 33.3432 79.5333 34.7085 80.472C36.1165 81.4107 37.7165 81.88 39.5085 81.88C40.7032 81.88 41.9618 81.6453 43.2845 81.176C44.6072 80.7067 45.9938 80.0027 47.4445 79.064C47.6152 78.808 47.7432 78.5307 47.8285 78.232C47.9565 77.8907 48.0205 77.528 48.0205 77.144C48.0205 76.7173 47.9352 76.2693 47.7645 75.8C47.6365 75.288 47.4018 74.7333 47.0605 74.136C46.5485 73.1547 46.2925 72.1947 46.2925 71.256C46.2925 70.5307 46.4205 69.8693 46.6765 69.272C46.9325 68.632 47.2738 68.0773 47.7005 67.608C48.0418 67.2667 48.3618 67.032 48.6605 66.904C49.0018 66.7333 49.3218 66.648 49.6205 66.648C50.0472 66.648 50.3032 66.7547 50.3885 66.968C49.7485 67.3947 49.4285 67.9707 49.4285 68.696C49.4285 69.2933 49.6845 69.912 50.1965 70.552C50.7938 71.2347 51.2205 71.9387 51.4765 72.664C51.7752 73.3893 51.9245 74.0933 51.9245 74.776C51.9245 75.4587 51.7965 76.0987 51.5405 76.696C51.3272 77.2507 51.0285 77.7627 50.6445 78.232H50.9645C51.6472 78.232 52.1165 78.4667 52.3725 78.936C52.6712 79.3627 52.8205 79.8107 52.8205 80.28C52.8205 80.7067 52.7138 81.0693 52.5005 81.368C52.3298 81.5387 52.2232 81.624 52.1805 81.624C52.0098 81.624 51.9245 81.4107 51.9245 80.984C51.9245 80.6 51.5618 80.28 50.8365 80.024C50.1112 79.768 49.4285 79.64 48.7885 79.64C48.4898 79.64 48.2125 79.6827 47.9565 79.768C46.4632 80.8773 44.9912 81.7093 43.5405 82.264C42.0898 82.776 40.6818 83.032 39.3165 83.032C40.1698 83.544 40.5965 84.184 40.5965 84.952C40.5965 85.5067 40.4045 85.8907 40.0205 86.104C39.6792 86.3173 39.3592 86.424 39.0605 86.424C38.8472 86.424 38.6978 86.3813 38.6125 86.296C38.5272 86.2107 38.6125 86.0827 38.8685 85.912C39.1245 85.784 39.2525 85.5067 39.2525 85.08C39.2525 84.6533 39.1032 84.2053 38.8045 83.736C38.5058 83.2667 38.1005 83.0107 37.5885 82.968C37.5885 82.968 37.5672 82.968 37.5245 82.968C37.5245 82.968 37.5032 82.9467 37.4605 82.904C34.8578 82.4773 32.7032 81.1547 30.9965 78.936C29.3325 76.7173 28.5005 74.0507 28.5005 70.936C28.5005 69.4 28.7352 67.7787 29.2045 66.072C29.6738 64.3653 30.4205 62.6373 31.4445 60.888C32.0418 59.8213 32.7245 58.84 33.4925 57.944C34.2605 57.0053 35.0498 56.1307 35.8605 55.32C35.6472 55.3627 35.4125 55.4053 35.1565 55.448C34.9432 55.448 34.7298 55.448 34.5165 55.448C33.5778 55.3627 32.7458 54.9787 32.0205 54.296C31.8925 54.3387 31.7645 54.3813 31.6365 54.424C31.5085 54.424 31.3805 54.424 31.2525 54.424C30.6978 54.424 30.1218 54.232 29.5245 53.848C28.9698 53.464 28.5218 52.9093 28.1805 52.184C27.8392 51.416 27.6685 50.4987 27.6685 49.432C27.6685 48.664 27.7752 47.9173 27.9885 47.192C28.2445 46.4667 28.5858 45.9547 29.0125 45.656C29.3112 45.4853 29.5458 45.4213 29.7165 45.464C29.8872 45.464 29.9938 45.4853 30.0365 45.528C29.7805 45.784 29.6525 46.0827 29.6525 46.424C29.6525 46.8507 29.7805 47.256 30.0365 47.64C30.3352 48.024 30.6338 48.3227 30.9325 48.536C31.2738 48.7493 31.6152 49.0053 31.9565 49.304C32.3405 49.56 32.6818 49.9867 32.9805 50.584C33.2365 51.0107 33.3645 51.5013 33.3645 52.056C33.3645 52.44 33.3005 52.824 33.1725 53.208C33.0445 53.5493 32.8098 53.8267 32.4685 54.04C32.7245 54.2107 33.0445 54.3813 33.4285 54.552C33.8552 54.68 34.2818 54.744 34.7085 54.744C35.1352 54.744 35.5405 54.7013 35.9245 54.616C36.3512 54.5307 36.7352 54.424 37.0765 54.296C38.4418 53.144 39.9138 52.1413 41.4925 51.288C43.0712 50.4347 44.6712 49.7307 46.2925 49.176C46.0365 49.1333 45.7805 49.0693 45.5245 48.984C45.3112 48.8987 45.0978 48.8133 44.8845 48.728C43.9885 48.1733 43.5405 47.512 43.5405 46.744C43.5405 46.104 43.8818 45.6347 44.5645 45.336C44.9058 45.1653 45.1618 45.144 45.3325 45.272C45.5032 45.3573 45.4818 45.4853 45.2685 45.656C45.1405 45.784 45.0765 45.9547 45.0765 46.168C45.0765 46.7653 45.3538 47.2987 45.9085 47.768C46.4205 48.28 47.0818 48.5787 47.8925 48.664C50.1965 48.024 52.5005 47.704 54.8045 47.704C57.5352 47.704 60.0525 48.1947 62.3565 49.176C64.6605 50.1573 66.4952 51.6507 67.8605 53.656C69.2685 55.6613 69.9725 58.2 69.9725 61.272C69.9725 62.5947 69.8232 64.0453 69.5245 65.624C69.2258 67.2027 68.7352 68.888 68.0525 70.68C67.3272 72.6 66.1752 74.7973 64.5965 77.272C63.0178 79.7467 61.1618 82.264 59.0285 84.824C56.9378 87.3413 54.6978 89.624 52.3085 91.672C54.1858 90.9467 56.0205 90.008 57.8125 88.856C59.6045 87.704 61.2898 86.4453 62.8685 85.08C65.3858 82.8613 67.6898 80.5573 69.7805 78.168C71.9138 75.736 73.7912 73.3893 75.4125 71.128C77.0338 68.8667 78.3778 66.8613 79.4445 65.112C79.9138 64.0453 80.3618 63.128 80.7885 62.36C81.2578 61.5493 81.7485 60.9307 82.2605 60.504C82.7298 60.0773 83.1778 59.7787 83.6045 59.608C84.0738 59.4373 84.4792 59.3307 84.8205 59.288L84.8845 59.928C84.5432 59.9707 84.2018 60.12 83.8605 60.376C83.5618 60.632 83.2845 60.8667 83.0285 61.08C82.9432 61.208 82.8365 61.336 82.7085 61.464C82.5805 61.592 82.4738 61.7627 82.3885 61.976C82.2178 62.232 82.0472 62.5093 81.8765 62.808C81.7485 63.1067 81.5778 63.4267 81.3645 63.768C80.7245 65.304 80.1272 67.1387 79.5725 69.272C79.0605 71.4053 78.5485 73.6453 78.0365 75.992C77.5672 78.296 77.0338 80.536 76.4365 82.712C75.8392 84.8453 75.1352 86.7013 74.3245 88.28C73.7698 89.432 72.9805 90.5627 71.9565 91.672C70.9325 92.7813 69.8872 93.72 68.8205 94.488C67.7538 95.256 66.8578 95.704 66.1325 95.832C68.9485 95.6613 71.5512 94.872 73.9405 93.464C76.3725 92.0133 78.5912 90.1573 80.5965 87.896C82.6018 85.6347 84.3938 83.224 85.9725 80.664C87.2098 78.6587 88.4258 76.376 89.6205 73.816C90.8578 71.2133 92.1165 68.5253 93.3965 65.752C94.7192 62.9787 96.1272 60.312 97.6205 57.752C99.1565 55.1493 100.842 52.8453 102.677 50.84C104.511 48.8347 106.559 47.3413 108.821 46.36C110.869 45.464 112.831 45.016 114.709 45.016C116.287 45.016 117.695 45.3787 118.933 46.104C120.213 46.7867 121.173 47.9387 121.813 49.56L121.045 50.2C120.533 49.0907 119.765 48.2587 118.741 47.704C117.759 47.1493 116.65 46.872 115.413 46.872C113.663 46.872 111.893 47.384 110.101 48.408C108.223 49.4747 106.431 51.0107 104.725 53.016C103.018 55.0213 101.375 57.2827 99.7965 59.8C98.2605 62.3173 96.7672 64.8987 95.3165 67.544C93.9085 70.1893 92.5432 72.728 91.2205 75.16C89.8978 77.592 88.6392 79.6827 87.4445 81.432C85.6525 84.0773 83.6045 86.616 81.3005 89.048C78.9965 91.4373 76.4152 93.3787 73.5565 94.872C70.6978 96.3653 67.4978 97.112 63.9565 97.112C63.6152 97.112 63.2525 97.0907 62.8685 97.048C62.5272 97.048 62.1858 97.0267 61.8445 96.984C61.5032 96.8987 61.3325 96.728 61.3325 96.472C61.3325 96.216 61.4818 96.0667 61.7805 96.024C63.0605 95.8107 64.3192 95.256 65.5565 94.36C66.7938 93.464 67.9032 92.3333 68.8845 90.968C70.1645 89.176 71.3165 87.064 72.3405 84.632C73.3645 82.2 74.3032 79.6827 75.1565 77.08C76.0098 74.4347 76.8418 71.96 77.6525 69.656C75.8178 72.3867 73.6418 75.2667 71.1245 78.296C68.6072 81.3253 66.0045 84.0133 63.3165 86.36C61.3965 88.024 59.2418 89.56 56.8525 90.968C54.4632 92.376 51.9458 93.4 49.3005 94.04C47.5085 95.32 45.7378 96.344 43.9885 97.112C42.2392 97.88 40.5538 98.264 38.9325 98.264ZM38.8045 97.368C40.0845 97.368 41.3858 97.112 42.7085 96.6C44.0312 96.088 45.3325 95.4267 46.6125 94.616C45.8018 94.744 44.9485 94.808 44.0525 94.808C42.4738 94.808 40.9165 94.616 39.3805 94.232C38.9965 94.1467 38.6338 94.0827 38.2925 94.04C37.9938 93.9973 37.7165 93.976 37.4605 93.976C36.3512 93.976 35.7965 94.3173 35.7965 95C35.7965 95.512 36.0952 96.024 36.6925 96.536C37.2898 97.0907 37.9938 97.368 38.8045 97.368ZM92.7385 95.896C91.7572 95.896 90.8398 95.6613 89.9865 95.192C89.1758 94.7227 88.5572 93.9547 88.1305 92.888C87.8318 92.1627 87.6825 91.2453 87.6825 90.136C87.6825 88.728 87.9385 87.2987 88.4505 85.848C89.2185 83.5867 90.3065 81.6027 91.7145 79.896C93.1225 78.1467 94.6798 76.7813 96.3865 75.8C98.1358 74.776 99.8852 74.264 101.635 74.264C103.213 74.264 104.365 74.6907 105.091 75.544C105.816 76.3973 106.179 77.4853 106.179 78.808C106.179 79.576 106.072 80.3867 105.859 81.24C105.688 82.0933 105.453 82.9467 105.155 83.8C104.728 84.9947 104.173 86.0827 103.491 87.064C102.808 88.0453 102.232 88.8133 101.763 89.368C102.701 89.88 103.661 89.9227 104.643 89.496C105.667 89.0267 106.605 88.344 107.459 87.448C108.312 86.5093 108.995 85.6347 109.507 84.824C109.592 84.6533 109.699 84.5467 109.827 84.504C109.997 84.4613 110.104 84.44 110.147 84.44C110.573 84.44 110.659 84.696 110.403 85.208C108.995 87.512 107.437 89.1333 105.731 90.072C104.024 90.968 102.509 91.0107 101.187 90.2L101.059 90.392C100.419 91.3307 99.7145 92.2053 98.9465 93.016C98.1785 93.784 97.3252 94.424 96.3865 94.936C95.8318 95.2347 95.2345 95.4693 94.5945 95.64C93.9545 95.8107 93.3358 95.896 92.7385 95.896ZM93.3145 94.808C94.2105 94.808 95.1705 94.5307 96.1945 93.976C97.0905 93.464 97.9012 92.824 98.6265 92.056C99.3945 91.288 100.013 90.5627 100.483 89.88C100.013 89.6667 99.6078 89.2827 99.2665 88.728C98.9252 88.1307 98.7545 87.4053 98.7545 86.552C98.7545 85.656 98.9252 84.696 99.2665 83.672C99.6505 82.6053 100.163 81.7093 100.803 80.984C101.485 80.2587 102.232 79.896 103.043 79.896C103.555 79.896 103.96 80.024 104.259 80.28C104.6 80.536 104.771 80.8347 104.771 81.176C104.856 80.9627 104.92 80.6427 104.963 80.216C105.048 79.7893 105.091 79.32 105.091 78.808C105.091 77.6987 104.877 76.9093 104.451 76.44C104.024 75.928 103.448 75.672 102.723 75.672C102.424 75.672 102.104 75.7147 101.763 75.8C101.464 75.8853 101.144 75.992 100.803 76.12C99.2238 76.76 97.6025 77.9547 95.9385 79.704C94.3172 81.4533 93.0798 83.3947 92.2265 85.528C91.8852 86.3813 91.5652 87.384 91.2665 88.536C90.9678 89.688 90.8185 90.7547 90.8185 91.736C90.8185 92.8453 91.0532 93.6347 91.5225 94.104C92.0345 94.5733 92.6318 94.808 93.3145 94.808ZM124.945 95.896C123.921 95.896 123.046 95.576 122.321 94.936C121.595 94.2533 121.233 93.2933 121.233 92.056C121.233 90.5627 121.659 89.0267 122.513 87.448C123.366 85.8267 124.369 84.2267 125.521 82.648C126.673 81.0693 127.675 79.6187 128.529 78.296C128.998 77.4853 129.233 76.824 129.233 76.312C129.233 75.7147 128.955 75.416 128.401 75.416C127.974 75.416 127.334 75.6933 126.481 76.248C125.627 76.76 124.539 77.656 123.217 78.936C121.937 80.216 120.699 81.6453 119.505 83.224C118.353 84.76 117.286 86.296 116.305 87.832C115.366 89.368 114.534 90.776 113.809 92.056C113.126 93.336 112.614 94.3173 112.273 95C111.974 95.128 111.59 95.2133 111.121 95.256C110.694 95.2987 110.246 95.32 109.777 95.32C108.71 95.32 108.006 95.256 107.665 95.128C108.219 94.36 108.945 93.2933 109.841 91.928C110.779 90.5627 111.761 89.0907 112.785 87.512C113.809 85.8907 114.747 84.376 115.601 82.968C116.07 82.1573 116.582 81.2827 117.137 80.344C117.691 79.4053 118.161 78.5307 118.545 77.72C118.929 76.8667 119.121 76.2267 119.121 75.8C119.121 75.3733 118.95 75.16 118.609 75.16C118.395 75.16 118.118 75.2667 117.777 75.48C117.435 75.6933 117.115 75.9707 116.817 76.312C116.177 76.952 115.345 77.9547 114.321 79.32C113.339 80.6427 112.038 82.6053 110.417 85.208C110.289 85.4213 110.075 85.528 109.777 85.528C109.435 85.528 109.35 85.2933 109.521 84.824C110.289 83.5867 111.078 82.3493 111.889 81.112C112.699 79.832 113.51 78.6373 114.321 77.528C115.174 76.4187 115.963 75.544 116.689 74.904C117.457 74.2213 118.267 73.88 119.121 73.88C119.931 73.88 120.55 74.1573 120.977 74.712C121.403 75.2667 121.617 75.9067 121.617 76.632C121.617 77.4853 121.425 78.424 121.041 79.448C121.211 79.2773 121.361 79.1067 121.489 78.936C121.659 78.7653 121.83 78.5947 122.001 78.424C123.494 76.8453 124.945 75.6933 126.353 74.968C127.803 74.2 129.062 73.816 130.129 73.816C130.939 73.816 131.622 74.0293 132.177 74.456C132.774 74.8827 133.073 75.4587 133.073 76.184C133.073 77.0373 132.774 78.0613 132.177 79.256C131.579 80.4507 130.897 81.5813 130.129 82.648C129.403 83.7147 128.806 84.5467 128.337 85.144C128.038 85.5707 127.462 86.36 126.609 87.512C125.755 88.6213 125.03 89.7733 124.433 90.968C124.134 91.48 123.921 91.9493 123.793 92.376C123.707 92.76 123.665 93.1227 123.665 93.464C123.665 94.4453 124.113 94.936 125.009 94.936C125.99 94.936 127.206 94.36 128.657 93.208C129.809 92.312 130.982 91.16 132.177 89.752C133.414 88.3013 134.587 86.6587 135.697 84.824C135.825 84.6107 135.953 84.504 136.081 84.504C136.209 84.4613 136.294 84.44 136.337 84.44C136.635 84.44 136.721 84.696 136.593 85.208C135.355 87.1707 134.054 88.984 132.689 90.648C131.366 92.312 130.022 93.6347 128.657 94.616C127.419 95.4693 126.182 95.896 124.945 95.896ZM145.052 95.512C144.113 95.512 143.239 95.2773 142.428 94.808C141.66 94.3387 141.233 93.6773 141.148 92.824C141.148 92.7387 141.127 92.6533 141.084 92.568C141.084 92.44 141.084 92.3333 141.084 92.248C141.084 91.096 141.404 89.88 142.044 88.6C142.727 87.32 143.217 86.1467 143.516 85.08C143.559 84.9093 143.58 84.76 143.58 84.632C143.623 84.4613 143.644 84.3333 143.644 84.248C143.644 83.736 143.431 83.48 143.004 83.48C142.535 83.48 141.937 83.736 141.212 84.248C140.487 84.7173 139.975 85.1013 139.676 85.4C138.183 86.936 136.903 88.3867 135.836 89.752C134.812 91.1173 133.767 92.8667 132.7 95C132.572 95.0427 132.273 95.0853 131.804 95.128C131.377 95.1707 130.951 95.192 130.524 95.192C129.799 95.192 129.457 95.128 129.5 95C129.841 94.4453 130.588 93.1867 131.74 91.224C132.892 89.2187 134.321 86.872 136.028 84.184C137.223 82.264 138.545 80.1307 139.996 77.784C141.447 75.3947 142.983 72.9627 144.604 70.488C146.268 67.9707 147.996 65.56 149.788 63.256C151.58 60.9093 153.393 58.8187 155.228 56.984C157.105 55.1493 158.983 53.6987 160.86 52.632C161.799 52.0773 162.631 51.7147 163.356 51.544C164.124 51.3307 164.785 51.224 165.34 51.224C165.895 51.224 166.385 51.288 166.812 51.416C167.793 51.672 168.284 52.4187 168.284 53.656C168.284 54.5947 168.028 55.7253 167.516 57.048C167.004 58.328 166.343 59.608 165.532 60.888C164.721 62.1253 163.889 63.2347 163.036 64.216C160.732 66.7333 158.471 68.696 156.252 70.104C154.033 71.4693 152.028 72.4507 150.236 73.048C148.487 73.6027 147.143 73.9867 146.204 74.2C144.839 76.1627 143.409 78.232 141.916 80.408C140.423 82.584 139.1 84.4827 137.948 86.104C138.503 85.5067 139.036 84.9307 139.548 84.376C140.06 83.8213 140.529 83.288 140.956 82.776C141.767 81.8373 142.727 80.856 143.836 79.832C144.945 78.7653 146.097 77.784 147.292 76.888C148.529 75.9493 149.745 75.2027 150.94 74.648C152.177 74.0507 153.287 73.752 154.268 73.752C155.164 73.752 155.868 73.9867 156.38 74.456C156.935 74.9253 157.212 75.5227 157.212 76.248C157.212 77.1013 156.764 78.0613 155.868 79.128C154.972 80.152 153.543 81.112 151.58 82.008C150.727 82.392 149.767 82.6907 148.7 82.904C147.633 83.0747 146.737 83.1813 146.012 83.224C146.225 83.5227 146.375 83.8427 146.46 84.184C146.545 84.5253 146.588 84.888 146.588 85.272C146.588 85.6987 146.524 86.1467 146.396 86.616C146.311 87.0427 146.204 87.4693 146.076 87.896C145.82 88.664 145.521 89.4533 145.18 90.264C144.881 91.032 144.689 91.8427 144.604 92.696V92.888C144.604 93.8693 145.009 94.36 145.82 94.36C146.375 94.36 147.015 94.1467 147.74 93.72C148.807 93.1227 150.087 92.12 151.58 90.712C153.073 89.2613 154.588 87.2987 156.124 84.824C156.252 84.6107 156.465 84.504 156.764 84.504C156.935 84.504 157.041 84.5893 157.084 84.76C157.127 84.888 157.105 85.0373 157.02 85.208C156.423 86.104 155.676 87.1493 154.78 88.344C153.884 89.496 152.881 90.6267 151.772 91.736C150.705 92.8453 149.596 93.7627 148.444 94.488C147.292 95.1707 146.161 95.512 145.052 95.512ZM147.036 72.984C147.847 72.8133 148.977 72.408 150.428 71.768C151.921 71.128 153.585 70.168 155.42 68.888C157.297 67.608 159.196 65.9013 161.116 63.768C161.884 62.9147 162.759 61.848 163.74 60.568C164.764 59.288 165.532 58.1147 166.044 57.048C166.385 56.28 166.62 55.64 166.748 55.128C166.919 54.5733 167.004 54.1253 167.004 53.784C167.004 53.016 166.663 52.632 165.98 52.632C165.297 52.632 164.444 52.952 163.42 53.592C162.396 54.1893 161.479 54.8507 160.668 55.576C159.345 56.7707 157.959 58.2427 156.508 59.992C155.057 61.6987 153.671 63.448 152.348 65.24C151.068 67.032 149.937 68.632 148.956 70.04C148.017 71.448 147.377 72.4293 147.036 72.984ZM142.3 82.776C143.239 82.7333 144.497 82.4347 146.076 81.88C147.697 81.2827 149.169 80.5787 150.492 79.768C151.857 79 152.881 78.2107 153.564 77.4C154.289 76.5467 154.652 75.8853 154.652 75.416C154.652 74.9467 154.353 74.712 153.756 74.712C153.159 74.712 152.284 75.0107 151.132 75.608C149.809 76.3333 148.337 77.3573 146.716 78.68C145.137 79.96 143.665 81.304 142.3 82.712V82.776ZM158.258 95.384C157.063 95.384 156.146 94.936 155.506 94.04C154.866 93.1013 154.546 91.9067 154.546 90.456C154.546 88.8773 154.972 87.0427 155.826 84.952C156.295 83.8 156.999 82.6267 157.938 81.432C158.876 80.1947 159.964 79.064 161.202 78.04C162.439 76.9733 163.762 76.12 165.17 75.48C166.62 74.7973 168.092 74.456 169.586 74.456C170.738 74.456 171.527 74.7547 171.954 75.352C172.38 75.9493 172.594 76.6747 172.594 77.528C172.594 78.3387 172.466 79.1707 172.21 80.024L175.794 74.584C176.092 74.3707 176.754 74.264 177.778 74.264C178.546 74.264 179.271 74.3493 179.954 74.52C180.679 74.6907 180.892 74.9467 180.594 75.288C180.252 75.7147 179.655 76.376 178.802 77.272C177.991 78.1253 177.095 79.1493 176.114 80.344C175.175 81.5387 174.279 82.7973 173.426 84.12C172.999 84.8453 172.359 85.912 171.506 87.32C170.695 88.728 170.055 90.072 169.586 91.352C169.33 92.12 169.202 92.7387 169.202 93.208C169.202 94.104 169.586 94.552 170.354 94.552C170.78 94.552 171.356 94.4027 172.082 94.104C172.807 93.7627 173.511 93.3147 174.194 92.76C175.559 91.6507 176.754 90.328 177.778 88.792C178.802 87.2133 179.719 85.8267 180.53 84.632C180.572 84.5893 180.615 84.5467 180.658 84.504C180.743 84.4613 180.871 84.44 181.042 84.44C181.212 84.44 181.34 84.5253 181.426 84.696C181.511 84.824 181.468 84.9947 181.298 85.208C180.103 87 178.93 88.6853 177.778 90.264C176.626 91.8 175.452 93.0373 174.258 93.976C173.063 94.9147 171.762 95.384 170.354 95.384C169.244 95.384 168.348 95.064 167.666 94.424C167.026 93.7413 166.706 92.824 166.706 91.672C166.706 91.16 166.748 90.6267 166.833 90.072C166.962 89.5173 167.111 89.0053 167.282 88.536C166.599 89.432 165.746 90.4133 164.722 91.48C163.74 92.5467 162.695 93.464 161.586 94.232C160.476 95 159.367 95.384 158.258 95.384ZM158.834 94.168C159.687 94.168 160.583 93.8267 161.522 93.144C162.503 92.4613 163.484 91.5867 164.466 90.52C165.447 89.4107 166.343 88.2373 167.154 87C167.836 85.976 168.498 84.888 169.138 83.736C169.82 82.584 170.375 81.4533 170.802 80.344C171.271 79.2347 171.506 78.232 171.506 77.336C171.506 75.9707 171.015 75.288 170.034 75.288C169.351 75.288 168.562 75.5867 167.666 76.184C166.77 76.7813 165.852 77.5493 164.914 78.488C164.018 79.4267 163.164 80.4507 162.354 81.56C161.586 82.6267 160.967 83.672 160.498 84.696C160.37 84.952 160.05 85.5707 159.538 86.552C159.068 87.5333 158.599 88.6 158.13 89.752C157.703 90.904 157.49 91.9067 157.49 92.76C157.49 93.6987 157.938 94.168 158.834 94.168Z" fill="white"/>
</svg>
